<svg width="552" height="252" viewBox="0 0 552 252" fill="none" xmlns="http://www.w3.org/2000/svg">
<path opacity="0.2" d="M118.594 6.71135L182 21L261.875 29.5741C267.614 30.1902 273.396 30.3082 279.156 29.9268L346 25.5L416.118 12.9146C421.362 11.9734 426.68 11.5 432.007 11.5H440.348C459.903 11.5 478.585 19.5994 491.952 33.8727C497.607 39.9107 502.158 46.8943 505.398 54.5056L522 93.5L536.05 121.175C537.681 124.387 539.054 127.723 540.156 131.152L544.929 146.001C549.313 159.64 546.185 174.58 536.698 185.315C534.244 188.092 531.422 190.52 528.309 192.531L509.634 204.598C503.562 208.521 497.084 211.774 490.311 214.301L448.707 229.82C441.262 232.597 433.513 234.476 425.623 235.419L358 243.5L267 247L203 243.5L143.5 234L83.9225 219.878C78.6496 218.628 73.4869 216.952 68.4856 214.865L43.691 204.521C36.53 201.534 29.9984 197.22 24.4402 191.806C9.23634 176.997 2.73408 155.399 7.23464 134.658L9.26058 125.321C10.7469 118.471 13.1405 111.85 16.3782 105.633L32.8527 74L51.983 38.9735C53.6094 35.9958 55.4665 33.1499 57.5374 30.4622L59.3698 28.084C69.9132 14.3999 85.9637 6.07299 103.223 5.33332C108.385 5.11208 113.554 5.57545 118.594 6.71135Z" fill="url(#paint0_linear_19_167)" stroke="#B5D16B" stroke-width="9"/>
<path d="M467.643 127.715C467.643 126.929 467.542 126.148 467.341 125.39L463 109.031L459 95.5311L446.558 48.3368C445.387 43.8946 447.73 39.2392 451.995 37.533L453.874 36.7813C454.291 36.6147 454.719 36.4796 455.155 36.3771L455.459 36.3055C459.793 35.2858 464.179 37.61 465.773 41.77L481 81.5311L488.5 101.031L498 127.531L504.077 144.023L508.64 158.157C510.302 163.303 510.051 168.015 508.08 168.681L499.755 171.494L487.862 175.512L475.969 179.53L467.643 182.343C465.673 183.009 462.728 179.377 461.067 174.23L456.504 160.097L453 147.531L452.965 147.372C452.405 144.855 453.707 142.272 456.064 141.225V141.225C456.354 141.096 456.655 140.993 456.963 140.918L461.795 139.731C462.337 139.598 462.863 139.406 463.364 139.157V139.157C465.98 137.857 467.643 135.17 467.643 132.243L467.643 127.715Z" fill="url(#paint1_linear_19_167)"/>
<path d="M323.5 134.031L321.614 113.531L318.404 70.4519C318.18 67.4452 320.41 64.8017 323.411 64.5159V64.5159C326.282 64.2424 328.866 66.2281 329.34 69.0718L336.5 112.031L338 124.531L340.5 142.031L342.127 154.925C342.559 158.352 344.915 161.218 348.19 162.299L349.061 162.587C350.337 163.008 351.693 163.137 353.029 162.963L357.527 162.379V162.379C361.115 161.913 364.373 164.476 364.763 168.073L365.569 175.511L366.912 190.317C367.402 195.709 366.122 200.241 364.054 200.441L355.316 201.285L342.834 202.49L330.352 203.696L321.614 204.539C319.546 204.739 317.473 200.53 316.984 195.139L315.641 180.333L314.504 173.801C313.92 170.442 315.776 167.121 318.949 165.852V165.852C321.695 164.753 323.5 162.089 323.5 159.135L323.5 134.031Z" fill="url(#paint2_linear_19_167)"/>
<path d="M209.5 152.531L210.5 143.531L212 133.031L213 119.031L214 108.531L219.096 70.7345C219.614 66.8941 222.889 64.0311 226.765 64.0311V64.0311C231.23 64.0311 234.779 67.7773 234.519 72.2348C233.721 85.8992 232.202 112.22 232.104 116.2L231.738 131.066L231.131 155.733L230.524 180.4L230.158 195.266C230.025 200.68 228.234 205.024 226.157 204.969L217.384 204.74L204.852 204.411L192.319 204.083L183.546 203.853C181.47 203.799 179.894 199.366 180.028 193.953L180.394 179.087L180.697 166.754V166.754C180.78 163.404 183.658 160.814 186.998 161.085L192.5 161.531L202.319 161.909C204.305 161.985 206.195 161.059 207.349 159.443V159.443C207.779 158.84 208.092 158.162 208.272 157.444L209.5 152.531Z" fill="url(#paint3_linear_19_167)"/>
<path d="M247.532 116.167L246.691 76.1242C246.587 71.1804 250.648 67.1531 255.59 67.2984V67.2984C260.066 67.4301 263.693 70.9615 263.944 75.4319L266 112.031L267.5 135.031L268.708 158.782C268.886 162.287 271.085 165.365 274.342 166.668L274.893 166.888C275.954 167.313 277.088 167.531 278.232 167.531L284.895 167.531L289.907 167.531C294.517 167.531 298.377 171.015 298.846 175.601L299.203 179.088L299.56 193.954C299.69 199.368 298.112 203.799 296.035 203.852L287.262 204.076L274.73 204.396L262.197 204.716L253.424 204.94C251.347 204.993 249.559 200.648 249.429 195.235L249.072 180.368L248.48 155.701L247.889 131.033L247.532 116.167Z" fill="url(#paint4_linear_19_167)"/>
<path d="M395.973 150.278C396.32 149.127 396.419 147.917 396.263 146.728L392.5 118.04L383.688 63.3045C383.289 60.8269 384.71 58.4011 387.07 57.5318V57.5318C389.975 56.4616 393.144 58.1369 393.886 61.1343L404 102.031L407.5 118.04L412.604 139.376C412.866 140.47 413.33 141.503 413.974 142.422L416.738 146.371C418.693 149.163 422.202 150.402 425.496 149.461L426.513 149.17C430.534 148.022 434.642 150.573 435.386 154.681V154.681L437.077 166.895L439.115 181.616C439.858 186.977 438.792 191.568 436.736 191.871L428.049 193.152L415.638 194.981L403.227 196.81L394.54 198.09C392.484 198.393 390.215 194.293 389.473 188.933L387.434 174.212L385.743 161.998V161.998C385.743 159.098 387.758 156.573 390.584 155.931L390.831 155.874C393.121 155.354 394.961 153.634 395.641 151.38L395.973 150.278Z" fill="url(#paint5_linear_19_167)"/>
<path d="M72.5001 80.0311L82.0001 60.5311L90.302 41.5552C91.5769 38.6412 94.7218 37.1107 97.79 37.9111V37.9111C101.247 38.8129 103.431 42.3463 102.717 45.8811L94 89.0312L92 98.0312L88 112.531L84.0241 128.129C82.6833 133.389 86.1831 138.76 91.4899 139.585L94.5197 140.056C99.1612 140.778 101.821 145.941 99.7314 150.172V150.172L96 160.031L90.1192 172.551C88.1733 177.554 85.0313 180.946 83.1012 180.128L74.9469 176.671L63.298 171.733L51.649 166.795L43.4947 163.338C41.5646 162.52 41.5774 157.801 43.5233 152.799L48.8668 139.06L57.7337 116.263L66.6005 93.4661L72.5001 80.0311Z" fill="url(#paint6_linear_19_167)"/>
<path d="M144 120.031L145.5 113.531L147 105.531L158.38 60.4645C158.971 58.1248 161.492 56.8848 163.718 57.8388V57.8388C165.362 58.5433 166.353 60.2583 166.14 62.0312L160.5 109.031L159.5 120.031L157 138.031L155.854 151.422C155.648 153.831 157.162 156.077 159.471 156.789V156.789C161.807 157.509 163.324 159.795 163.082 162.227L161.463 178.484L158.488 193.023C157.404 198.318 154.878 202.245 152.846 201.795L144.259 199.895L131.992 197.181L119.725 194.467L111.138 192.567C109.105 192.117 108.336 187.461 109.419 182.167L112.394 167.628L114.863 155.565L114.95 155.083C115.815 150.312 120.289 147.142 125.07 147.913L130.104 148.725C131.342 148.925 132.605 148.762 133.744 148.256V148.256C135.491 147.48 136.797 145.961 137.313 144.106L144 120.031Z" fill="url(#paint7_linear_19_167)"/>
<path d="M267.461 76.996C267.153 71.5907 268.584 67.1049 270.657 66.9767L279.418 66.4351L291.933 65.6613L304.448 64.8876L313.208 64.346C315.282 64.2178 317.213 68.4957 317.521 73.901L318.368 88.745L319.772 113.376L321.177 138.007L322.024 152.851C322.332 158.257 320.901 162.742 318.827 162.87L310.067 163.412L297.552 164.186L285.037 164.96L276.276 165.501C274.203 165.629 272.272 161.351 271.963 155.946L271.117 141.102L269.712 116.471L268.307 91.8399L267.461 76.996Z" fill="url(#paint8_linear_19_167)"/>
<path d="M167.467 66.4677C168.12 61.0947 170.32 56.955 172.381 57.2215L181.088 58.3472L193.528 59.9554L205.967 61.5637L214.674 62.6894C216.736 62.9559 217.877 67.5276 217.225 72.9006L215.432 87.6558L212.459 112.14L209.485 136.624L207.693 151.379C207.04 156.752 204.84 160.891 202.779 160.625L194.072 159.499L181.632 157.891L169.193 156.283L160.485 155.157C158.424 154.891 157.283 150.319 157.935 144.946L159.727 130.191L162.701 105.707L165.675 81.2229L167.467 66.4677Z" fill="url(#paint9_linear_19_167)"/>
<path d="M105.802 49.0536C107.053 43.7945 109.732 39.9529 111.788 40.473L120.47 42.6707L132.874 45.8102L145.278 48.9497L153.96 51.1474C156.015 51.6676 156.668 56.3526 155.417 61.6116L151.983 76.054L146.284 100.019L140.586 123.983L137.151 138.426C135.901 143.685 133.221 147.526 131.166 147.006L122.483 144.809L110.079 141.669L97.6756 138.53L88.993 136.332C86.9378 135.812 86.2856 131.127 87.5362 125.868L90.9705 111.425L96.6691 87.4607L102.368 63.4959L105.802 49.0536Z" fill="url(#paint10_linear_19_167)"/>
<path d="M396.798 63.112C395.471 57.8655 396.025 53.1828 398.035 52.6529L406.526 50.4143L418.657 47.2161L430.787 44.018L439.279 41.7793C441.289 41.2495 443.994 45.073 445.32 50.3195L448.964 64.7272L455.009 88.6345L461.055 112.542L464.699 126.95C466.025 132.196 465.471 136.879 463.462 137.409L454.97 139.647L442.839 142.845L430.709 146.043L422.217 148.282C420.207 148.812 417.503 144.989 416.176 139.742L412.532 125.334L406.487 101.427L400.441 77.5197L396.798 63.112Z" fill="url(#paint11_linear_19_167)"/>
<path d="M332.337 73.6653C331.519 68.3164 332.519 63.7096 334.571 63.3757L343.239 61.9651L355.623 59.9499L368.007 57.9348L376.675 56.5241C378.727 56.1903 381.053 60.2557 381.871 65.6047L384.116 80.2937L387.843 104.668L391.569 129.042L393.815 143.731C394.633 149.08 393.632 153.687 391.58 154.02L382.912 155.431L370.528 157.446L358.145 159.461L349.476 160.872C347.425 161.206 345.098 157.14 344.281 151.791L342.035 137.102L338.309 112.728L334.582 88.3543L332.337 73.6653Z" fill="url(#paint12_linear_19_167)"/>
<defs>
<linearGradient id="paint0_linear_19_167" x1="275.963" y1="-90.6363" x2="275.963" y2="240" gradientUnits="userSpaceOnUse">
<stop stop-color="#F5F2ED"/>
<stop offset="1" stop-color="#E8E4DF"/>
</linearGradient>
<linearGradient id="paint1_linear_19_167" x1="448.933" y1="136.645" x2="496.715" y2="121.219" gradientUnits="userSpaceOnUse">
<stop stop-color="#F5F2ED"/>
<stop offset="1" stop-color="#E8E4DF"/>
</linearGradient>
<linearGradient id="paint2_linear_19_167" x1="313.412" y1="155.765" x2="363.367" y2="151.233" gradientUnits="userSpaceOnUse">
<stop stop-color="#F5F2ED"/>
<stop offset="1" stop-color="#E8E4DF"/>
</linearGradient>
<linearGradient id="paint3_linear_19_167" x1="181.001" y1="154.42" x2="231.133" y2="155.654" gradientUnits="userSpaceOnUse">
<stop stop-color="#F5F2ED"/>
<stop offset="1" stop-color="#E8E4DF"/>
</linearGradient>
<linearGradient id="paint4_linear_19_167" x1="248.48" y1="155.701" x2="298.614" y2="154.498" gradientUnits="userSpaceOnUse">
<stop stop-color="#F5F2ED"/>
<stop offset="1" stop-color="#E8E4DF"/>
</linearGradient>
<linearGradient id="paint5_linear_19_167" x1="384.052" y1="149.784" x2="433.755" y2="142.902" gradientUnits="userSpaceOnUse">
<stop stop-color="#F5F2ED"/>
<stop offset="1" stop-color="#E8E4DF"/>
</linearGradient>
<linearGradient id="paint6_linear_19_167" x1="57.7336" y1="116.263" x2="104.88" y2="134.601" gradientUnits="userSpaceOnUse">
<stop stop-color="#F5F2ED"/>
<stop offset="1" stop-color="#E8E4DF"/>
</linearGradient>
<linearGradient id="paint7_linear_19_167" x1="117.331" y1="143.502" x2="166.56" y2="153.576" gradientUnits="userSpaceOnUse">
<stop stop-color="#F5F2ED"/>
<stop offset="1" stop-color="#E8E4DF"/>
</linearGradient>
<linearGradient id="paint8_linear_19_167" x1="269.712" y1="116.471" x2="319.786" y2="113.615" gradientUnits="userSpaceOnUse">
<stop stop-color="#F5F2ED"/>
<stop offset="1" stop-color="#E8E4DF"/>
</linearGradient>
<linearGradient id="paint9_linear_19_167" x1="162.701" y1="105.707" x2="212.505" y2="111.756" gradientUnits="userSpaceOnUse">
<stop stop-color="#F5F2ED"/>
<stop offset="1" stop-color="#E8E4DF"/>
</linearGradient>
<linearGradient id="paint10_linear_19_167" x1="96.6691" y1="87.4607" x2="146.455" y2="99.2994" gradientUnits="userSpaceOnUse">
<stop stop-color="#F5F2ED"/>
<stop offset="1" stop-color="#E8E4DF"/>
</linearGradient>
<linearGradient id="paint11_linear_19_167" x1="406.487" y1="101.427" x2="455.133" y2="89.1252" gradientUnits="userSpaceOnUse">
<stop stop-color="#F5F2ED"/>
<stop offset="1" stop-color="#E8E4DF"/>
</linearGradient>
<linearGradient id="paint12_linear_19_167" x1="338.309" y1="112.728" x2="387.916" y2="105.144" gradientUnits="userSpaceOnUse">
<stop stop-color="#F5F2ED"/>
<stop offset="1" stop-color="#E8E4DF"/>
</linearGradient>
</defs>
</svg>
